<?xml version="1.0" encoding="utf-8"?>
<!-- Generator: Adobe Illustrator 22.0.0, SVG Export Plug-In . SVG Version: 6.00 Build 0)  -->
<svg version="1.1" id="Layer_1" xmlns="http://www.w3.org/2000/svg" xmlns:xlink="http://www.w3.org/1999/xlink" x="0px" y="0px"
	 viewBox="0 0 17 17" style="enable-background:new 0 0 17 17;" xml:space="preserve">
<style type="text/css">
	.st0{fill:none;stroke:#000000;stroke-linecap:round;stroke-linejoin:round;stroke-miterlimit:10;}
</style>
<path d="M17,8.8c-1.3-3.3-4.7-5.5-8.5-5.5S1.3,5.6,0,8.8c0,0.1,0,0.2,0,0.4c1.3,3.3,4.7,5.5,8.5,5.5s7.2-2.2,8.5-5.5
	C17,9.1,17,8.9,17,8.8z M8.5,13.6C5.2,13.6,2.2,11.8,1,9c1.2-2.8,4.2-4.6,7.5-4.6S14.8,6.2,16,9C14.8,11.8,11.8,13.6,8.5,13.6z
	 M8.5,5.4C6.5,5.4,4.9,7,4.9,9s1.6,3.6,3.6,3.6c2,0,3.6-1.6,3.6-3.6S10.5,5.4,8.5,5.4z M8.5,11.6C7,11.6,5.9,10.5,5.9,9
	S7,6.4,8.5,6.4s2.6,1.2,2.6,2.6S10,11.6,8.5,11.6z M8.5,7.6C7.8,7.6,7.1,8.3,7.1,9s0.6,1.4,1.4,1.4S9.9,9.7,9.9,9S9.2,7.6,8.5,7.6z
	 M8.5,9.4C8.3,9.4,8.1,9.2,8.1,9s0.2-0.4,0.4-0.4S8.9,8.8,8.9,9S8.7,9.4,8.5,9.4z"/>
<line class="st0" x1="1.7" y1="15.7" x2="15.3" y2="2.3"/>
</svg>
