<svg xmlns="http://www.w3.org/2000/svg" viewBox="0 0 93.33 70"><defs><style>.cls-1{fill:#231f20;}</style></defs><title>simb</title><g id="Objects"><path class="cls-1" d="M9.48,18h2.15a3.87,3.87,0,0,1,3.87,3.87V49.45a3.45,3.45,0,0,1-3.45,3.45H9.48A3.87,3.87,0,0,1,5.61,49V21.86A3.87,3.87,0,0,1,9.48,18Z"/><path class="cls-1" d="M63.83,4.54H66a3.87,3.87,0,0,1,3.87,3.87v54.5a3.45,3.45,0,0,1-3.45,3.45H63.83A3.87,3.87,0,0,1,60,62.48V8.41a3.87,3.87,0,0,1,3.87-3.87Z"/><path class="cls-1" d="M27.59,4.54h2.15a3.87,3.87,0,0,1,3.87,3.87v54.5a3.45,3.45,0,0,1-3.45,3.45H27.59a3.87,3.87,0,0,1-3.87-3.87V8.41a3.87,3.87,0,0,1,3.87-3.87Z"/><path class="cls-1" d="M81.95,18H84.1A3.87,3.87,0,0,1,88,21.86V49.45a3.45,3.45,0,0,1-3.45,3.45H81.95A3.87,3.87,0,0,1,78.08,49V21.86A3.87,3.87,0,0,1,81.95,18Z"/><path class="cls-1" d="M45.71,19.86h2.15a3.87,3.87,0,0,1,3.87,3.87V50.55A3.45,3.45,0,0,1,48.29,54H45.71a3.87,3.87,0,0,1-3.87-3.87V23.73a3.87,3.87,0,0,1,3.87-3.87Z"/></g></svg>