<svg xmlns="http://www.w3.org/2000/svg" viewBox="0 0 220 76.67"><defs><style>.cls-1{fill:#231f20;}.cls-2{fill:#3222d3;}</style></defs><title>Movil</title><g id="Objects"><path class="cls-1" d="M9.48,21.33h2.15A3.87,3.87,0,0,1,15.5,25.2V52.79a3.45,3.45,0,0,1-3.45,3.45H9.48a3.87,3.87,0,0,1-3.87-3.87V25.2a3.87,3.87,0,0,1,3.87-3.87Z"/><path class="cls-1" d="M63.83,7.87H66a3.87,3.87,0,0,1,3.87,3.87v54.5a3.45,3.45,0,0,1-3.45,3.45H63.83A3.87,3.87,0,0,1,60,65.82V11.74a3.87,3.87,0,0,1,3.87-3.87Z"/><path class="cls-1" d="M27.59,7.87h2.15a3.87,3.87,0,0,1,3.87,3.87v54.5a3.45,3.45,0,0,1-3.45,3.45H27.59a3.87,3.87,0,0,1-3.87-3.87V11.74a3.87,3.87,0,0,1,3.87-3.87Z"/><path class="cls-1" d="M81.95,21.33H84.1A3.87,3.87,0,0,1,88,25.2V52.79a3.45,3.45,0,0,1-3.45,3.45H81.95a3.87,3.87,0,0,1-3.87-3.87V25.2A3.87,3.87,0,0,1,81.95,21.33Z"/><path class="cls-1" d="M45.71,23.19h2.15a3.87,3.87,0,0,1,3.87,3.87V53.88a3.45,3.45,0,0,1-3.45,3.45H45.71a3.87,3.87,0,0,1-3.87-3.87V27.06a3.87,3.87,0,0,1,3.87-3.87Z"/><path class="cls-2" d="M106.56,47.47,115,29.41a.53.53,0,0,1,.45-.29h.27a.54.54,0,0,1,.46.29l8.4,18.06a.48.48,0,0,1-.46.7h-3c-.48,0-.7-.16-.94-.67l-1-2.12h-7.3l-1,2.15a1,1,0,0,1-1,.64H107A.47.47,0,0,1,106.56,47.47Zm11-5.74-2-4.43h0l-2,4.43Z"/><path class="cls-2" d="M145.63,29.12a9,9,0,0,1,6.49,2.49.49.49,0,0,1,0,.75l-2.09,2.18a.47.47,0,0,1-.67,0,5.48,5.48,0,0,0-3.63-1.37,5.49,5.49,0,0,0,0,11,5.71,5.71,0,0,0,3.6-1.29.53.53,0,0,1,.69,0l2.1,2.23a.54.54,0,0,1,0,.73,9.2,9.2,0,0,1-6.52,2.6,9.66,9.66,0,1,1,0-19.32Z"/><path class="cls-2" d="M168,29.55a.5.5,0,0,1,.48-.43h.43a.58.58,0,0,1,.46.27L175.55,41h.06l6.22-11.59a.57.57,0,0,1,.46-.27h.43a.51.51,0,0,1,.48.43l3,18a.49.49,0,0,1-.51.59h-3.16a.54.54,0,0,1-.51-.43l-1.21-8.29h-.05l-4.51,8.69a.62.62,0,0,1-.46.3h-.48a.57.57,0,0,1-.46-.3l-4.53-8.69h-.06l-1.18,8.29a.52.52,0,0,1-.51.43h-3.17a.48.48,0,0,1-.5-.59Z"/><path class="cls-2" d="M200.4,29.9a.51.51,0,0,1,.51-.51H212a.51.51,0,0,1,.51.51v2.92a.51.51,0,0,1-.51.51h-7.43v3.33h6.12a.53.53,0,0,1,.51.51v2.92a.51.51,0,0,1-.51.51h-6.12v3.63H212a.51.51,0,0,1,.51.51v2.92a.51.51,0,0,1-.51.51H200.91a.51.51,0,0,1-.51-.51Z"/></g></svg>