<?xml version="1.0" encoding="utf-8"?>
<!-- Generator: Adobe Illustrator 22.0.0, SVG Export Plug-In . SVG Version: 6.00 Build 0)  -->
<svg version="1.1" xmlns="http://www.w3.org/2000/svg" xmlns:xlink="http://www.w3.org/1999/xlink" x="0px" y="0px"
	 viewBox="0 0 135.5 133.8" style="enable-background:new 0 0 135.5 133.8;" xml:space="preserve">
<style type="text/css">
	.st0{opacity:0.3;}
	.st1{fill:#0078A5;}
	.st2{fill:#FFFFFF;}
	.st3{fill:#3393B7;}
	.st4{opacity:0.35;}
	.st5{fill:#F5F9FC;}
	.st6{opacity:0.2;}
	.st7{fill:#FFFFFF;stroke:#EFEFEF;stroke-width:2.2248;stroke-miterlimit:10;}
	.st8{fill:#72C499;}
	.st9{fill:#15B9A9;}
	.st10{fill:url(#SVGID_1_);}
	.st11{fill:#454549;}
	.st12{fill:#1C1B1B;}
	.st13{fill:#FFFFFF;stroke:#EFEFEF;stroke-width:1.1124;stroke-miterlimit:10;}
	.st14{fill:#FFFFFF;stroke:#EFEFEF;stroke-width:2.2139;stroke-miterlimit:10;}
	.st15{fill:#C2C3C5;}
	.st16{fill:#FC6D6D;}
	.st17{fill:#12AD93;}
	.st18{fill:#FFC200;}
	.st19{fill:#FFFFFF;stroke:#EFEFEF;stroke-width:2;stroke-miterlimit:10;}
	.st20{fill:#FFFFFF;stroke:#EFEFEF;stroke-width:2.1514;stroke-miterlimit:10;}
	.st21{fill:#D3D3D3;}
	.st22{fill:none;stroke:#0078A5;stroke-width:1.0601;stroke-miterlimit:10;}
	.st23{fill:none;stroke:#D9DBDD;stroke-width:1.0601;stroke-miterlimit:10;}
	.st24{fill:none;stroke:#0078A5;stroke-miterlimit:10;}
	.st25{opacity:0.75;}
	.st26{fill:none;stroke:#D9DBDD;stroke-miterlimit:10;}
	.st27{fill:none;stroke:#FFFFFF;stroke-width:2;stroke-linecap:round;stroke-linejoin:round;stroke-miterlimit:10;}
	.st28{fill:#F1F1F2;}
	.st29{fill:#D0D2D3;}
	.st30{fill:#EB008B;}
	.st31{opacity:0.36;}
	.st32{fill:url(#SVGID_2_);}
	.st33{opacity:0.4;}
	.st34{fill:url(#SVGID_3_);}
	.st35{fill:#FAEAEB;}
	.st36{fill:#505054;}
	.st37{fill:#565659;}
	.st38{fill:none;stroke:#FF4F4C;stroke-miterlimit:10;}
	.st39{fill:#E1F3F2;}
	.st40{fill:none;stroke:#00C1A6;stroke-miterlimit:10;}
	.st41{fill:#FBF4E3;}
	.st42{fill:none;stroke:#FFC200;stroke-miterlimit:10;}
	.st43{fill:url(#SVGID_4_);}
	.st44{fill:url(#SVGID_5_);}
	.st45{clip-path:url(#SVGID_7_);}
	.st46{clip-path:url(#SVGID_9_);}
	.st47{opacity:0.95;fill:#0078A5;}
	.st48{fill:#232323;}
	.st49{fill:#FF4F4C;}
	.st50{fill:#9D9EA5;}
	.st51{fill:#B2B5C0;}
	.st52{fill:url(#SVGID_10_);}
	.st53{fill:url(#SVGID_11_);}
	.st54{fill:url(#SVGID_12_);}
	.st55{fill:url(#SVGID_13_);}
	.st56{fill:#FFFFFF;stroke:#0078A5;stroke-miterlimit:10;}
	.st57{fill:#FCFCFC;stroke:#E2E2E2;stroke-miterlimit:10;}
	.st58{fill:#FFFFFF;stroke:#454549;stroke-miterlimit:10;}
	.st59{fill:#FCFCFC;}
	.st60{fill:none;stroke:#454549;stroke-miterlimit:10;}
	.st61{opacity:0.8;fill:#0078A5;}
	.st62{opacity:0.1;fill:#0078A5;}
	.st63{fill:#EFEFEF;}
	.st64{clip-path:url(#SVGID_15_);}
	.st65{fill:url(#SVGID_16_);}
	.st66{fill:url(#SVGID_17_);}
	.st67{fill:url(#SVGID_18_);}
	.st68{fill:url(#SVGID_19_);}
	.st69{fill:#FFFFFF;stroke:#F2F0F2;stroke-width:0.25;stroke-miterlimit:10;}
	.st70{fill:none;stroke:#0078A5;stroke-width:0.762;stroke-miterlimit:10;}
	.st71{clip-path:url(#SVGID_21_);}
	.st72{fill:url(#SVGID_22_);}
	.st73{fill:url(#SVGID_23_);}
	.st74{fill:url(#SVGID_24_);}
	.st75{fill:url(#SVGID_25_);}
	.st76{clip-path:url(#SVGID_27_);}
	.st77{fill:#0078A5;stroke:#FCFCFC;stroke-width:0.9877;stroke-miterlimit:10;}
	.st78{clip-path:url(#SVGID_29_);}
	.st79{fill:#FFFFFF;stroke:#C2C3C5;stroke-width:0.25;stroke-miterlimit:10;}
	.st80{display:none;}
</style>
<g id="menu_1_">
</g>
<g id="modul">
</g>
<g id="select">
</g>
<g id="indiq">
</g>
<g id="Layer_4">
	<g id="Layer_782">
	</g>
	<g id="Layer_781">
	</g>
	<g id="Layer_780">
	</g>
	<g id="Layer_779">
	</g>
	<g id="Layer_778">
	</g>
	<g id="Layer_777">
	</g>
	<g id="Layer_776">
	</g>
	<g id="Layer_775">
	</g>
	<g id="Layer_774">
	</g>
	<g id="Layer_773">
	</g>
	<g id="Layer_772">
	</g>
	<g id="Layer_771">
	</g>
	<g id="Layer_770">
	</g>
	<g id="Layer_769">
	</g>
	<g id="Layer_768">
	</g>
	<g id="Layer_767">
	</g>
	<g id="Layer_766">
	</g>
	<g id="Layer_765">
	</g>
	<g id="Layer_764">
	</g>
	<g id="Layer_763">
	</g>
	<g id="Layer_762">
	</g>
	<g id="Layer_761">
	</g>
	<g id="Layer_760">
	</g>
	<g id="Layer_759">
	</g>
	<g id="Layer_758">
	</g>
	<g id="Layer_757">
	</g>
	<g id="Layer_756">
	</g>
	<g id="Layer_755">
	</g>
	<g id="Layer_754">
	</g>
	<g id="Layer_753">
	</g>
	<g id="Layer_752">
	</g>
	<g id="Layer_751">
	</g>
	<g id="Layer_750">
	</g>
	<g id="Layer_749">
	</g>
	<g id="Layer_748">
	</g>
	<g id="Layer_747">
	</g>
	<g id="Layer_746">
	</g>
	<g id="Layer_745">
	</g>
	<g id="Layer_744">
	</g>
	<g id="Layer_743">
	</g>
	<g id="Layer_742">
	</g>
	<g id="Layer_741">
	</g>
	<g id="Layer_740">
	</g>
	<g id="Layer_739">
	</g>
	<g id="Layer_738">
	</g>
	<g id="Layer_737">
	</g>
	<g id="Layer_736">
	</g>
	<g id="Layer_735">
	</g>
	<g id="Layer_734">
	</g>
	<g id="Layer_733">
	</g>
	<g id="Layer_732">
	</g>
	<g id="Layer_731">
	</g>
	<g id="Layer_730">
	</g>
	<g id="Layer_729">
	</g>
	<g id="Layer_728">
	</g>
	<g id="Layer_727">
	</g>
	<g id="Layer_726">
	</g>
	<g id="Layer_725">
	</g>
	<g id="Layer_724">
	</g>
	<g id="Layer_723">
	</g>
	<g id="Layer_722">
	</g>
	<g id="Layer_721">
	</g>
	<g id="Layer_720">
	</g>
	<g id="Layer_719">
	</g>
	<g id="Layer_718">
	</g>
	<g id="Layer_717">
	</g>
	<g id="Layer_716">
	</g>
	<g id="Layer_715">
	</g>
	<g id="Layer_714">
	</g>
	<g id="Layer_713">
	</g>
	<g id="Layer_712">
	</g>
	<g id="Layer_711">
	</g>
	<g id="Layer_710">
	</g>
	<g id="Layer_709">
	</g>
	<g id="Layer_708">
	</g>
	<g id="Layer_707">
	</g>
	<g id="Layer_706">
	</g>
	<g id="Layer_705">
	</g>
	<g id="Layer_704">
	</g>
	<g id="Layer_703">
	</g>
	<g id="Layer_702">
	</g>
	<g id="Layer_701">
	</g>
	<g id="Layer_700">
	</g>
	<g id="Layer_699">
	</g>
	<g id="Layer_698">
	</g>
	<g id="Layer_697">
	</g>
	<g id="Layer_696">
	</g>
	<g id="Layer_695">
	</g>
	<g id="Layer_694">
	</g>
	<g id="Layer_693">
	</g>
	<g id="Layer_692">
	</g>
	<g id="Layer_691">
	</g>
	<g id="Layer_690">
	</g>
	<g id="Layer_689">
	</g>
	<g id="Layer_688">
	</g>
	<g id="Layer_687">
	</g>
	<g id="Layer_686">
	</g>
	<g id="Layer_685">
	</g>
	<g id="Layer_684">
	</g>
	<g id="Layer_683">
	</g>
	<g id="Layer_682">
	</g>
	<g id="Layer_681">
	</g>
	<g id="Layer_680">
	</g>
	<g id="Layer_679">
	</g>
	<g id="Layer_678">
	</g>
	<g id="Layer_677">
	</g>
	<g id="Layer_676">
	</g>
	<g id="Layer_675">
	</g>
	<g id="Layer_674">
	</g>
	<g id="Layer_673">
	</g>
	<g id="Layer_672">
	</g>
	<g id="Layer_671">
	</g>
	<g id="Layer_670">
	</g>
	<g id="Layer_669">
	</g>
	<g id="Layer_668">
	</g>
	<g id="Layer_667">
	</g>
	<g id="Layer_666">
	</g>
	<g id="Layer_665">
	</g>
	<g id="Layer_664">
	</g>
	<g id="Layer_663">
	</g>
	<g id="Layer_662">
	</g>
	<g id="Layer_661">
	</g>
	<g id="Layer_660">
	</g>
	<g id="Layer_659">
	</g>
	<g id="Layer_658">
	</g>
	<g id="Layer_657">
	</g>
	<g id="Layer_656">
	</g>
	<g id="Layer_655">
	</g>
	<g id="Layer_654">
	</g>
	<g id="Layer_653">
	</g>
	<g id="Layer_652">
	</g>
	<g id="Layer_651">
	</g>
	<g id="Layer_650">
	</g>
	<g id="Layer_649">
	</g>
	<g id="Layer_648">
	</g>
	<g id="Layer_647">
	</g>
	<g id="Layer_646">
	</g>
	<g id="Layer_645">
	</g>
	<g id="Layer_644">
	</g>
	<g id="Layer_643">
	</g>
	<g id="Layer_642">
	</g>
	<g id="Layer_641">
	</g>
	<g id="Layer_640">
	</g>
	<g id="Layer_639">
	</g>
	<g id="Layer_638">
	</g>
	<g id="Layer_637">
	</g>
	<g id="Layer_636">
	</g>
	<g id="Layer_635">
	</g>
	<g id="Layer_634">
	</g>
	<g id="Layer_633">
	</g>
	<g id="Layer_632">
	</g>
	<g id="Layer_631">
	</g>
	<g id="Layer_630">
	</g>
	<g id="Layer_629">
	</g>
	<g id="Layer_628">
	</g>
	<g id="Layer_627">
	</g>
	<g id="Layer_626">
		<g id="Layer_313">
			<g id="Layer_315">
			</g>
			<g id="Layer_314">
			</g>
		</g>
	</g>
	<g id="Layer_625">
		<g id="Layer_2">
			<g id="Layer_469">
				<g id="Layer_312">
					<g id="Layer_158">
					</g>
				</g>
			</g>
			<g id="Layer_468">
				<g id="Layer_311">
					<g id="Layer_157">
					</g>
				</g>
			</g>
			<g id="Layer_467">
				<g id="Layer_310">
					<g id="Layer_156">
					</g>
				</g>
			</g>
			<g id="Layer_466">
				<g id="Layer_309">
					<g id="Layer_155">
					</g>
				</g>
			</g>
			<g id="Layer_465">
				<g id="Layer_308">
					<g id="Layer_154">
					</g>
				</g>
			</g>
			<g id="Layer_464">
				<g id="Layer_307">
					<g id="Layer_153">
					</g>
				</g>
			</g>
			<g id="Layer_463">
				<g id="Layer_306">
					<g id="Layer_152">
					</g>
				</g>
			</g>
			<g id="Layer_462">
				<g id="Layer_305">
					<g id="Layer_151">
					</g>
				</g>
			</g>
			<g id="Layer_461">
				<g id="Layer_304">
					<g id="Layer_150">
					</g>
				</g>
			</g>
			<g id="Layer_460">
				<g id="Layer_303">
					<g id="Layer_149">
					</g>
				</g>
			</g>
			<g id="Layer_459">
				<g id="Layer_302">
					<g id="Layer_148">
					</g>
				</g>
			</g>
			<g id="Layer_458">
				<g id="Layer_301">
					<g id="Layer_147">
					</g>
				</g>
			</g>
			<g id="Layer_457">
				<g id="Layer_300">
					<g id="Layer_146">
					</g>
				</g>
			</g>
			<g id="Layer_456">
				<g id="Layer_299">
					<g id="Layer_145">
					</g>
				</g>
			</g>
			<g id="Layer_455">
				<g id="Layer_298">
					<g id="Layer_144">
					</g>
				</g>
			</g>
			<g id="Layer_454">
				<g id="Layer_297">
					<g id="Layer_143">
					</g>
				</g>
			</g>
			<g id="Layer_453">
				<g id="Layer_296">
					<g id="Layer_142">
					</g>
				</g>
			</g>
			<g id="Layer_452">
				<g id="Layer_295">
					<g id="Layer_141">
					</g>
				</g>
			</g>
			<g id="Layer_451">
				<g id="Layer_294">
					<g id="Layer_140">
					</g>
				</g>
			</g>
			<g id="Layer_450">
				<g id="Layer_293">
					<g id="Layer_139">
					</g>
				</g>
			</g>
			<g id="Layer_449">
				<g id="Layer_292">
					<g id="Layer_138">
					</g>
				</g>
			</g>
			<g id="Layer_448">
				<g id="Layer_291">
					<g id="Layer_137">
					</g>
				</g>
			</g>
			<g id="Layer_447">
				<g id="Layer_290">
					<g id="Layer_136">
					</g>
				</g>
			</g>
			<g id="Layer_446">
				<g id="Layer_289">
					<g id="Layer_135">
					</g>
				</g>
			</g>
			<g id="Layer_445">
				<g id="Layer_288">
					<g id="Layer_134">
					</g>
				</g>
			</g>
			<g id="Layer_444">
				<g id="Layer_287">
					<g id="Layer_133">
					</g>
				</g>
			</g>
			<g id="Layer_443">
				<g id="Layer_286">
					<g id="Layer_132">
					</g>
				</g>
			</g>
			<g id="Layer_442">
				<g id="Layer_285">
					<g id="Layer_131">
					</g>
				</g>
			</g>
			<g id="Layer_441">
				<g id="Layer_284">
					<g id="Layer_130">
					</g>
				</g>
			</g>
			<g id="Layer_440">
				<g id="Layer_283">
					<g id="Layer_129">
					</g>
				</g>
			</g>
			<g id="Layer_439">
				<g id="Layer_282">
					<g id="Layer_128">
					</g>
				</g>
			</g>
			<g id="Layer_438">
				<g id="Layer_281">
					<g id="Layer_127">
					</g>
				</g>
			</g>
			<g id="Layer_437">
				<g id="Layer_280">
					<g id="Layer_126">
					</g>
				</g>
			</g>
			<g id="Layer_436">
				<g id="Layer_279">
					<g id="Layer_125">
					</g>
				</g>
			</g>
			<g id="Layer_435">
				<g id="Layer_278">
					<g id="Layer_124">
					</g>
				</g>
			</g>
			<g id="Layer_434">
				<g id="Layer_277">
					<g id="Layer_123">
					</g>
				</g>
			</g>
			<g id="Layer_433">
				<g id="Layer_276">
					<g id="Layer_122">
					</g>
				</g>
			</g>
			<g id="Layer_432">
				<g id="Layer_275">
					<g id="Layer_121">
					</g>
				</g>
			</g>
			<g id="Layer_431">
				<g id="Layer_274">
					<g id="Layer_120">
					</g>
				</g>
			</g>
			<g id="Layer_430">
				<g id="Layer_273">
					<g id="Layer_119">
					</g>
				</g>
			</g>
			<g id="Layer_429">
				<g id="Layer_272">
					<g id="Layer_118">
					</g>
				</g>
			</g>
			<g id="Layer_428">
				<g id="Layer_271">
					<g id="Layer_117">
					</g>
				</g>
			</g>
			<g id="Layer_427">
				<g id="Layer_270">
					<g id="Layer_116">
					</g>
				</g>
			</g>
			<g id="Layer_426">
				<g id="Layer_269">
					<g id="Layer_115">
					</g>
				</g>
			</g>
			<g id="Layer_425">
				<g id="Layer_268">
					<g id="Layer_114">
					</g>
				</g>
			</g>
			<g id="Layer_424">
				<g id="Layer_267">
					<g id="Layer_113">
					</g>
				</g>
			</g>
			<g id="Layer_423">
				<g id="Layer_266">
					<g id="Layer_112">
					</g>
				</g>
			</g>
			<g id="Layer_422">
				<g id="Layer_265">
					<g id="Layer_111">
					</g>
				</g>
			</g>
			<g id="Layer_421">
				<g id="Layer_264">
					<g id="Layer_110">
					</g>
				</g>
			</g>
			<g id="Layer_420">
				<g id="Layer_263">
					<g id="Layer_109">
					</g>
				</g>
			</g>
			<g id="Layer_419">
				<g id="Layer_262">
					<g id="Layer_108">
					</g>
				</g>
			</g>
			<g id="Layer_418">
				<g id="Layer_261">
					<g id="Layer_107">
					</g>
				</g>
			</g>
			<g id="Layer_417">
				<g id="Layer_260">
					<g id="Layer_106">
					</g>
				</g>
			</g>
			<g id="Layer_416">
				<g id="Layer_259">
					<g id="Layer_105">
					</g>
				</g>
			</g>
			<g id="Layer_415">
				<g id="Layer_258">
					<g id="Layer_104">
					</g>
				</g>
			</g>
			<g id="Layer_414">
				<g id="Layer_257">
					<g id="Layer_103">
					</g>
				</g>
			</g>
			<g id="Layer_413">
				<g id="Layer_256">
					<g id="Layer_102">
					</g>
				</g>
			</g>
			<g id="Layer_412">
				<g id="Layer_255">
					<g id="Layer_101">
					</g>
				</g>
			</g>
			<g id="Layer_411">
				<g id="Layer_254">
					<g id="Layer_100">
					</g>
				</g>
			</g>
			<g id="Layer_410">
				<g id="Layer_253">
					<g id="Layer_99">
					</g>
				</g>
			</g>
			<g id="Layer_409">
				<g id="Layer_252">
					<g id="Layer_98">
					</g>
				</g>
			</g>
			<g id="Layer_408">
				<g id="Layer_251">
					<g id="Layer_97">
					</g>
				</g>
			</g>
			<g id="Layer_407">
				<g id="Layer_250">
					<g id="Layer_96">
					</g>
				</g>
			</g>
			<g id="Layer_406">
				<g id="Layer_249">
					<g id="Layer_95">
					</g>
				</g>
			</g>
			<g id="Layer_405">
				<g id="Layer_248">
					<g id="Layer_94">
					</g>
				</g>
			</g>
			<g id="Layer_404">
				<g id="Layer_470">
					<g id="Layer_247">
						<g id="Layer_93">
						</g>
					</g>
				</g>
			</g>
			<g id="Layer_403">
				<g id="Layer_246">
					<g id="Layer_92">
					</g>
				</g>
			</g>
			<g id="Layer_402">
				<g id="Layer_245">
					<g id="Layer_91">
					</g>
				</g>
			</g>
			<g id="Layer_401">
				<g id="Layer_244">
					<g id="Layer_90">
					</g>
				</g>
			</g>
			<g id="Layer_400">
				<g id="Layer_243">
					<g id="Layer_89">
					</g>
				</g>
			</g>
			<g id="Layer_399">
				<g id="Layer_242">
					<g id="Layer_88">
					</g>
				</g>
			</g>
			<g id="Layer_398">
				<g id="Layer_241">
					<g id="Layer_87">
					</g>
				</g>
			</g>
			<g id="Layer_397">
				<g id="Layer_240">
					<g id="Layer_86">
					</g>
				</g>
			</g>
			<g id="Layer_396">
				<g id="Layer_239">
					<g id="Layer_85">
					</g>
				</g>
			</g>
			<g id="Layer_395">
				<g id="Layer_238">
					<g id="Layer_84">
					</g>
				</g>
			</g>
			<g id="Layer_394">
				<g id="Layer_237">
					<g id="Layer_83">
					</g>
				</g>
			</g>
			<g id="Layer_393">
				<g id="Layer_236">
					<g id="Layer_82">
					</g>
				</g>
			</g>
			<g id="Layer_392">
				<g id="Layer_235">
					<g id="Layer_81">
					</g>
				</g>
			</g>
			<g id="Layer_391">
				<g id="Layer_234">
					<g id="Layer_80">
					</g>
				</g>
			</g>
			<g id="Layer_390">
				<g id="Layer_233">
					<g id="Layer_79">
					</g>
				</g>
			</g>
			<g id="Layer_389">
				<g id="Layer_232">
					<g id="Layer_78">
					</g>
				</g>
			</g>
			<g id="Layer_388">
				<g id="Layer_231">
					<g id="Layer_77">
					</g>
				</g>
			</g>
			<g id="Layer_387">
				<g id="Layer_230">
					<g id="Layer_76">
					</g>
				</g>
			</g>
			<g id="Layer_386">
				<g id="Layer_229">
					<g id="Layer_75">
					</g>
				</g>
			</g>
			<g id="Layer_385">
				<g id="Layer_228">
					<g id="Layer_74">
					</g>
				</g>
			</g>
			<g id="Layer_384">
				<g id="Layer_227">
					<g id="Layer_73">
					</g>
				</g>
			</g>
			<g id="Layer_383">
				<g id="Layer_226">
					<g id="Layer_72">
					</g>
				</g>
			</g>
			<g id="Layer_382">
				<g id="Layer_225">
					<g id="Layer_71">
					</g>
				</g>
			</g>
			<g id="Layer_381">
				<g id="Layer_224">
					<g id="Layer_70">
					</g>
				</g>
			</g>
			<g id="Layer_380">
				<g id="Layer_223">
					<g id="Layer_69">
					</g>
				</g>
			</g>
			<g id="Layer_379">
				<g id="Layer_222">
					<g id="Layer_68">
					</g>
				</g>
			</g>
			<g id="Layer_378">
				<g id="Layer_221">
					<g id="Layer_67">
					</g>
				</g>
			</g>
			<g id="Layer_377">
				<g id="Layer_220">
					<g id="Layer_66">
					</g>
				</g>
			</g>
			<g id="Layer_376">
				<g id="Layer_219">
					<g id="Layer_65">
					</g>
				</g>
			</g>
			<g id="Layer_375">
				<g id="Layer_218">
					<g id="Layer_64">
					</g>
				</g>
			</g>
			<g id="Layer_374">
				<g id="Layer_217">
					<g id="Layer_63">
					</g>
				</g>
			</g>
			<g id="Layer_373">
				<g id="Layer_216">
					<g id="Layer_62">
					</g>
				</g>
			</g>
			<g id="Layer_372">
				<g id="Layer_215">
					<g id="Layer_61">
					</g>
				</g>
			</g>
			<g id="Layer_371">
				<g id="Layer_214">
					<g id="Layer_60">
					</g>
				</g>
			</g>
			<g id="Layer_370">
				<g id="Layer_213">
					<g id="Layer_59">
					</g>
				</g>
			</g>
			<g id="Layer_369">
				<g id="Layer_212">
					<g id="Layer_58">
					</g>
				</g>
			</g>
			<g id="Layer_368">
				<g id="Layer_211">
					<g id="Layer_57">
					</g>
				</g>
			</g>
			<g id="Layer_367">
				<g id="Layer_210">
					<g id="Layer_56">
					</g>
				</g>
			</g>
			<g id="Layer_366">
				<g id="Layer_209">
					<g id="Layer_55">
					</g>
				</g>
			</g>
			<g id="Layer_365">
				<g id="Layer_208">
					<g id="Layer_54">
					</g>
				</g>
			</g>
			<g id="Layer_364">
				<g id="Layer_207">
					<g id="Layer_53">
					</g>
				</g>
			</g>
			<g id="Layer_363">
				<g id="Layer_206">
					<g id="Layer_52">
					</g>
				</g>
			</g>
			<g id="Layer_787">
			</g>
			<g id="Layer_362">
				<g id="Layer_205">
					<g id="Layer_51">
					</g>
				</g>
			</g>
			<g id="Layer_361">
				<g id="Layer_204">
					<g id="Layer_50">
					</g>
				</g>
			</g>
			<g id="Layer_360">
				<g id="Layer_203">
					<g id="Layer_49">
					</g>
				</g>
			</g>
			<g id="Layer_359">
				<g id="Layer_202">
					<g id="Layer_48">
					</g>
				</g>
			</g>
			<g id="Layer_358">
				<g id="Layer_201">
					<g id="Layer_47">
					</g>
				</g>
			</g>
			<g id="Layer_357">
				<g id="Layer_200">
					<g id="Layer_46">
					</g>
				</g>
			</g>
			<g id="Layer_356">
				<g id="Layer_199">
					<g id="Layer_45">
					</g>
				</g>
			</g>
			<g id="Layer_355">
				<g id="Layer_198">
					<g id="Layer_44">
					</g>
				</g>
			</g>
			<g id="Layer_354">
				<g id="Layer_197">
					<g id="Layer_43">
					</g>
				</g>
			</g>
			<g id="Layer_353">
				<g id="Layer_196">
					<g id="Layer_42">
					</g>
				</g>
			</g>
			<g id="Layer_352">
				<g id="Layer_195">
					<g id="Layer_41">
					</g>
				</g>
			</g>
			<g id="Layer_351">
				<g id="Layer_194">
					<g id="Layer_40">
					</g>
				</g>
			</g>
			<g id="Layer_350">
				<g id="Layer_193">
					<g id="Layer_39">
					</g>
				</g>
			</g>
			<g id="Layer_349">
				<g id="Layer_192">
					<g id="Layer_38">
					</g>
				</g>
			</g>
			<g id="Layer_348">
				<g id="Layer_191">
					<g id="Layer_37">
					</g>
				</g>
			</g>
			<g id="Layer_347">
				<g id="Layer_190">
					<g id="Layer_36">
					</g>
				</g>
			</g>
			<g id="Layer_346">
				<g id="Layer_189">
					<g id="Layer_35">
					</g>
				</g>
			</g>
			<g id="Layer_345">
				<g id="Layer_188">
					<g id="Layer_34">
					</g>
				</g>
			</g>
			<g id="Layer_344">
				<g id="Layer_187">
					<g id="Layer_33">
					</g>
				</g>
			</g>
			<g id="Layer_343">
				<g id="Layer_186">
					<g id="Layer_32">
					</g>
				</g>
			</g>
			<g id="Layer_342">
				<g id="Layer_185">
					<g id="Layer_31">
					</g>
				</g>
			</g>
			<g id="Layer_341">
				<g id="Layer_184">
					<g id="Layer_30">
					</g>
				</g>
			</g>
			<g id="Layer_340">
				<g id="Layer_183">
					<g id="Layer_29">
					</g>
				</g>
			</g>
			<g id="Layer_339">
				<g id="Layer_182">
					<g id="Layer_28">
					</g>
				</g>
			</g>
			<g id="Layer_338">
				<g id="Layer_181">
					<g id="Layer_27">
					</g>
				</g>
			</g>
			<g id="Layer_337">
				<g id="Layer_180">
					<g id="Layer_26">
					</g>
				</g>
			</g>
			<g id="Layer_336">
				<g id="Layer_179">
					<g id="Layer_25">
					</g>
				</g>
			</g>
			<g id="Layer_335">
				<g id="Layer_178">
					<g id="Layer_24">
					</g>
				</g>
			</g>
			<g id="Layer_334">
				<g id="Layer_177">
					<g id="Layer_23">
					</g>
				</g>
			</g>
			<g id="Layer_333">
				<g id="Layer_176">
					<g id="Layer_22">
					</g>
				</g>
			</g>
			<g id="Layer_332">
				<g id="Layer_175">
					<g id="Layer_21">
					</g>
				</g>
			</g>
			<g id="Layer_331">
				<g id="Layer_174">
					<g id="Layer_20">
					</g>
				</g>
			</g>
			<g id="Layer_327">
				<g id="Layer_170">
					<g id="Layer_16">
					</g>
				</g>
			</g>
			<g id="Layer_326">
				<g id="Layer_169">
					<g id="Layer_15">
					</g>
				</g>
			</g>
			<g id="Layer_325">
				<g id="Layer_168">
					<g id="Layer_14">
					</g>
				</g>
			</g>
			<g id="Layer_324">
				<g id="Layer_167">
					<g id="Layer_13">
					</g>
				</g>
			</g>
			<g id="Layer_323">
				<g id="Layer_166">
					<g id="Layer_12">
					</g>
				</g>
			</g>
			<g id="Layer_322">
				<g id="Layer_165">
					<g id="Layer_11">
					</g>
				</g>
			</g>
			<g id="Layer_321">
				<g id="Layer_164">
					<g id="Layer_10">
					</g>
				</g>
			</g>
			<g id="Layer_320">
				<g id="Layer_163">
					<g id="Layer_9">
					</g>
				</g>
			</g>
			<g id="Layer_319">
				<g id="Layer_162">
					<g id="Layer_8">
					</g>
				</g>
			</g>
			<g id="Layer_318">
				<g id="Layer_161">
					<g id="Layer_7">
					</g>
				</g>
			</g>
			<g id="Layer_317">
				<g id="Layer_160">
					<g id="Layer_6">
					</g>
				</g>
			</g>
			<g id="Layer_316">
				<g id="Layer_159">
					<g id="Layer_5">
					</g>
				</g>
			</g>
		</g>
	</g>
	<g id="Layer_624">
	</g>
	<g id="Layer_623">
	</g>
	<g id="Layer_622">
	</g>
	<g id="Layer_621">
	</g>
	<g id="Layer_620">
	</g>
	<g id="Layer_619">
	</g>
	<g id="Layer_618">
	</g>
	<g id="Layer_617">
	</g>
	<g id="Layer_616">
	</g>
	<g id="Layer_615">
	</g>
	<g id="Layer_614">
	</g>
	<g id="Layer_613">
	</g>
	<g id="Layer_612">
	</g>
	<g id="Layer_611">
	</g>
	<g id="Layer_610">
	</g>
	<g id="Layer_609">
	</g>
	<g id="Layer_608">
	</g>
	<g id="Layer_607">
	</g>
	<g id="Layer_606">
	</g>
	<g id="Layer_605">
	</g>
	<g id="Layer_604">
	</g>
	<g id="Layer_603">
	</g>
	<g id="Layer_602">
	</g>
	<g id="Layer_601">
	</g>
	<g id="Layer_600">
	</g>
	<g id="Layer_599">
	</g>
	<g id="Layer_598">
	</g>
	<g id="Layer_597">
	</g>
	<g id="Layer_596">
	</g>
	<g id="Layer_595">
	</g>
	<g id="Layer_594">
	</g>
	<g id="Layer_593">
	</g>
	<g id="Layer_592">
	</g>
	<g id="Layer_591">
	</g>
	<g id="Layer_590">
	</g>
	<g id="Layer_589">
	</g>
	<g id="Layer_588">
	</g>
	<g id="Layer_587">
	</g>
	<g id="Layer_586">
	</g>
	<g id="Layer_585">
	</g>
	<g id="Layer_584">
		<g id="Layer_1">
		</g>
		<g id="Layer_796">
		</g>
	</g>
	<g id="LOGO1">
	</g>
	<g id="Layer_582">
	</g>
	<g id="Layer_581">
	</g>
	<g id="Layer_580">
	</g>
	<g id="Layer_579">
	</g>
	<g id="Layer_578">
	</g>
	<g id="Layer_577">
	</g>
	<g id="Layer_576">
	</g>
	<g id="Layer_575">
	</g>
	<g id="Layer_574">
	</g>
	<g id="Layer_573">
	</g>
	<g id="Layer_572">
	</g>
	<g id="Layer_571">
	</g>
	<g id="Layer_570">
	</g>
	<g id="Layer_569">
	</g>
	<g id="Layer_568">
	</g>
	<g id="Layer_567">
	</g>
	<g id="Layer_566">
	</g>
	<g id="Layer_565">
	</g>
	<g id="Layer_564">
	</g>
	<g id="Layer_563">
	</g>
	<g id="Layer_562">
	</g>
	<g id="Layer_561">
	</g>
	<g id="Layer_560">
	</g>
	<g id="Layer_559">
	</g>
	<g id="Layer_558">
	</g>
	<g id="Layer_557">
	</g>
	<g id="Layer_556">
	</g>
	<g id="Layer_555">
	</g>
	<g id="Layer_554">
	</g>
	<g id="Layer_553">
	</g>
	<g id="Layer_552">
	</g>
	<g id="Layer_551">
	</g>
	<g id="Layer_550">
	</g>
	<g id="Layer_549">
	</g>
	<g id="Layer_548">
	</g>
	<g id="Layer_547">
	</g>
	<g id="Layer_546">
	</g>
	<g id="Layer_545">
	</g>
	<g id="Layer_544">
	</g>
	<g id="Layer_543">
	</g>
	<g id="Layer_542">
	</g>
	<g id="Layer_541">
	</g>
	<g id="Layer_540">
	</g>
	<g id="Layer_539">
	</g>
	<g id="Layer_538">
	</g>
	<g id="Layer_537">
	</g>
	<g id="Layer_535">
	</g>
	<g id="Layer_534">
	</g>
	<g id="Layer_533">
	</g>
	<g id="Layer_532">
	</g>
	<g id="Layer_531">
	</g>
	<g id="Layer_530">
	</g>
	<g id="Layer_529">
	</g>
	<g id="Layer_528">
	</g>
	<g id="Layer_527">
	</g>
	<g id="Layer_526">
	</g>
	<g id="Layer_525">
	</g>
	<g id="Layer_524">
	</g>
	<g id="Layer_523">
	</g>
	<g id="Layer_522">
	</g>
	<g id="Layer_521">
	</g>
	<g id="Layer_520">
	</g>
	<g id="Layer_519">
	</g>
	<g id="Layer_518">
	</g>
	<g id="Layer_517">
	</g>
	<g id="Layer_516">
	</g>
	<g id="Layer_515">
	</g>
	<g id="Layer_514">
	</g>
	<g id="Layer_513">
	</g>
	<g id="Layer_512">
	</g>
	<g id="Layer_511">
	</g>
	<g id="Layer_510">
	</g>
	<g id="Layer_509">
	</g>
	<g id="Layer_507">
	</g>
	<g id="Layer_506">
	</g>
	<g id="Layer_505">
	</g>
	<g id="Layer_504">
	</g>
	<g id="Layer_503">
	</g>
	<g id="Layer_502">
	</g>
	<g id="Layer_501">
	</g>
	<g id="Layer_500">
	</g>
	<g id="Layer_499">
	</g>
	<g id="Layer_498">
	</g>
	<g id="Layer_497">
	</g>
	<g id="Layer_496">
	</g>
	<g id="Layer_495">
	</g>
	<g id="Layer_494">
	</g>
	<g id="Layer_493">
	</g>
	<g id="Layer_492">
	</g>
	<g id="Layer_491">
	</g>
	<g id="Layer_490">
	</g>
	<g id="Layer_489">
	</g>
	<g id="Layer_488">
	</g>
	<g id="Layer_487">
	</g>
	<g id="Layer_486">
	</g>
	<g id="Layer_485">
	</g>
	<g id="Layer_484">
	</g>
	<g id="Layer_483">
	</g>
	<g id="Layer_482">
	</g>
	<g id="Layer_481">
	</g>
	<g id="Layer_480">
	</g>
	<g id="Layer_479">
	</g>
	<g id="Layer_478">
	</g>
	<g id="Layer_477">
	</g>
	<g id="Layer_476">
	</g>
	<g id="Layer_475">
	</g>
	<g id="Layer_474">
	</g>
	<g id="Layer_473">
	</g>
	<g id="Layer_472">
	</g>
	<g id="Layer_471">
	</g>
	<g id="Layer_536">
	</g>
	<g id="Layer_508">
	</g>
</g>
<g id="base_menu">
</g>
<g id="base_blank">
</g>
<g id="selet">
</g>
<g id="detect">
</g>
<g id="Layer_784">
</g>
<g id="Layer_785">
</g>
<g id="Layer_786">
</g>
<g id="Layer_788">
</g>
<g id="Layer_789">
</g>
<g id="Layer_790">
</g>
<g id="Layer_791">
</g>
<g id="Layer_803">
</g>
<g id="Layer_792">
</g>
<g id="Layer_793">
</g>
<g id="Layer_794">
</g>
<g id="menu">
</g>
<g id="header">
</g>
<g id="Layer_795">
</g>
<g id="head">
</g>
<g id="logo">
</g>
<g id="foto">
</g>
<g id="Texto">
</g>
<g id="icon">
</g>
<g id="cuerpo">
</g>
<g id="icon1">
</g>
<g id="iconos">
	<g>
		<path class="st1" d="M68.1,45.3v15.8c0,2.4,1.9,4.3,4.3,4.3h49.1c2.4,0,4.3-1.9,4.3-4.3V45.3c0-2.4-1.9-4.3-4.3-4.3H72.4
			C70.1,41,68.1,42.9,68.1,45.3z M123.8,62.9L70.7,63l-0.1-19.4l53.3-0.1V62.9z"/>
		<path class="st1" d="M81.5,70l-8.9-0.1c-2.5,0-4.5,2-4.5,4.4l0,6.7c0,2.5,2,4.5,4.4,4.5l8.9,0.1c2.5,0,4.5-2,4.5-4.4l0-6.7
			C85.9,72,83.9,70,81.5,70z"/>
		<path class="st1" d="M86.9,53.3h1.5c0.8,0,1.5-0.6,1.5-1.3c0-0.7-0.7-1.3-1.5-1.3h-1.5c-0.8,0-1.5,0.6-1.5,1.3
			C85.4,52.7,86.1,53.3,86.9,53.3z"/>
		<path class="st1" d="M94.3,53.3h13.2c0.8,0,1.5-0.6,1.5-1.3c0-0.7-0.7-1.3-1.5-1.3H94.3c-0.8,0-1.5,0.6-1.5,1.3
			C92.8,52.7,93.4,53.3,94.3,53.3z"/>
		<path class="st1" d="M8.1,121.2l51.8,0.2v5.2c0,4.9,3.6,6.2,8.5,6.2l57.5,0.7c4.3,0.3,7.5-3.8,7.5-7.9V41c0-3.7-1.1-7.9-5.3-7.9
			H97.2L97,7.1c0-3.5-2.8-6.3-6.3-6.3h-3c-3.5,0-6.3,2.8-6.3,6.3v25.9h-6.7V20.5c0-3.5-2.8-6.3-6.3-6.3h-3c-3.5,0-5.6,2.9-5.6,6.4
			v88.4l-5.1-0.1V42.8c0-3.5-2.8-6.3-6.3-6.3h-3c-3.5,0-6.3,2.8-6.3,6.3v66.1h-4.9V83c0-3.5-2.4-6.3-5.8-6.3h-3
			c-3.5,0-6.3,2.8-6.3,6.3v26l-5.1,0.1L14.7,7.5c0-3.7-3-6.7-6.7-6.7c-3.7,0-6.7,3-6.7,6.7v75.8c0,1.2-0.1,1.7,0.9,1.7
			c1.2,0,1.1-0.8,1.1-2.1V7.1c0-1.2,2.1-4.2,4.3-4.2c3.2,0,5.3,2.9,5.3,4.2l-1.1,99.8c0,2.5,0.3,4.2,2.8,4.2l45.1-0.2v8.6H7.7
			c-2.1,0-4.3-3.1-4.3-5.2v-12.5c0-1.2,0.2-3.1-1.1-3.1c-1.2,0-0.9,1.4-0.9,2.6v13.4C1.4,118.2,4.4,121.2,8.1,121.2z M21.5,108.9
			v-27c0-1.1,1.9-3.1,3.2-3.1H29c1.3,0,3.2,2.1,3.2,3.1v27H21.5z M41.8,108.9V42.4c0-2.1,1.9-4.2,3.3-4.2h3.9c1.3,0,3.5,1,3.5,4.2
			v66.5H41.8z M131.2,39.7v86.5c0,2.5-2,4.6-4.6,4.6H67.3c-2.5,0-5.3-1.6-5.3-4.2V38.3c0-2.5,2.8-3.1,5.3-3.1h59.3
			C129.2,35.1,131.2,37.2,131.2,39.7z M83.3,7.1c0-2.1,1.5-4.2,3.2-4.2h5.2C93.6,2.9,95,5,95,7.1v26H83.3V7.1z M64.9,16.4H69
			c1.4,0,3.6,2,3.6,3.1v13.5h-4.3c-2.2,0-4.3,0-6.4,1V19.5C62,18.4,63.5,16.4,64.9,16.4z"/>
		<path class="st59" d="M80.7,71.5h-7.5c-2.1,0-3.7,1.6-3.7,3.6v5.3c0,2,1.7,3.6,3.7,3.6h7.5c2.1,0,3.7-1.6,3.7-3.6v-5.3
			C84.4,73.1,82.7,71.5,80.7,71.5z"/>
		<path class="st1" d="M101.7,70l-8.9-0.1c-2.5,0-4.5,2-4.5,4.4l0,6.7c0,2.5,2,4.5,4.4,4.5l8.9,0.1c2.5,0,4.5-2,4.5-4.4l0-6.7
			C106.1,72,104.1,70,101.7,70z"/>
		<path class="st59" d="M100.9,71.5h-7.5c-2.1,0-3.7,1.6-3.7,3.6v5.3c0,2,1.7,3.6,3.7,3.6h7.5c2.1,0,3.7-1.6,3.7-3.6v-5.3
			C104.7,73.1,103,71.5,100.9,71.5z"/>
		<path class="st1" d="M121.9,70l-8.9-0.1c-2.5,0-4.5,2-4.5,4.4l0,6.7c0,2.5,2,4.5,4.4,4.5l8.9,0.1c2.5,0,4.5-2,4.5-4.4l0-6.7
			C126.4,72,124.4,70,121.9,70z"/>
		<path class="st59" d="M121.2,71.5h-7.5c-2.1,0-3.7,1.6-3.7,3.6v5.3c0,2,1.7,3.6,3.7,3.6h7.5c2.1,0,3.7-1.6,3.7-3.6v-5.3
			C124.9,73.1,123.2,71.5,121.2,71.5z"/>
		<path class="st1" d="M81.5,89.7l-8.9-0.1c-2.5,0-4.5,2-4.5,4.4l0,6.7c0,2.5,2,4.5,4.4,4.5l8.9,0.1c2.5,0,4.5-2,4.5-4.4l0-6.7
			C85.9,91.8,83.9,89.7,81.5,89.7z"/>
		<path class="st59" d="M80.7,91.3h-7.5c-2.1,0-3.7,1.6-3.7,3.6v5.3c0,2,1.7,3.6,3.7,3.6h7.5c2.1,0,3.7-1.6,3.7-3.6v-5.3
			C84.4,92.9,82.7,91.3,80.7,91.3z"/>
		<path class="st1" d="M101.7,89.7l-8.9-0.1c-2.5,0-4.5,2-4.5,4.4l0,6.7c0,2.5,2,4.5,4.4,4.5l8.9,0.1c2.5,0,4.5-2,4.5-4.4l0-6.7
			C106.1,91.8,104.1,89.7,101.7,89.7z"/>
		<path class="st59" d="M100.9,91.3h-7.5c-2.1,0-3.7,1.6-3.7,3.6v5.3c0,2,1.7,3.6,3.7,3.6h7.5c2.1,0,3.7-1.6,3.7-3.6v-5.3
			C104.7,92.9,103,91.3,100.9,91.3z"/>
		<path class="st1" d="M121.9,89.7l-8.9-0.1c-2.5,0-4.5,2-4.5,4.4l0,6.7c0,2.5,2,4.5,4.4,4.5l8.9,0.1c2.5,0,4.5-2,4.5-4.4l0-6.7
			C126.4,91.8,124.4,89.7,121.9,89.7z"/>
		<path class="st59" d="M121.2,91.3h-7.5c-2.1,0-3.7,1.6-3.7,3.6v5.3c0,2,1.7,3.6,3.7,3.6h7.5c2.1,0,3.7-1.6,3.7-3.6v-5.3
			C124.9,92.9,123.2,91.3,121.2,91.3z"/>
		<path class="st1" d="M81.5,109.5l-8.9-0.1c-2.5,0-4.5,2-4.5,4.4l0,6.7c0,2.5,2,4.5,4.4,4.5l8.9,0.1c2.5,0,4.5-2,4.5-4.4l0-6.7
			C85.9,111.5,83.9,109.5,81.5,109.5z"/>
		<path class="st59" d="M80.7,111h-7.5c-2.1,0-3.7,1.6-3.7,3.6v5.3c0,2,1.7,3.6,3.7,3.6h7.5c2.1,0,3.7-1.6,3.7-3.6v-5.3
			C84.4,112.6,82.7,111,80.7,111z"/>
		<path class="st1" d="M101.7,109.5l-8.9-0.1c-2.5,0-4.5,2-4.5,4.4l0,6.7c0,2.5,2,4.5,4.4,4.5l8.9,0.1c2.5,0,4.5-2,4.5-4.4l0-6.7
			C106.1,111.5,104.1,109.5,101.7,109.5z"/>
		<path class="st59" d="M100.9,111h-7.5c-2.1,0-3.7,1.6-3.7,3.6v5.3c0,2,1.7,3.6,3.7,3.6h7.5c2.1,0,3.7-1.6,3.7-3.6v-5.3
			C104.7,112.6,103,111,100.9,111z"/>
		<path class="st1" d="M121.9,109.5l-8.9-0.1c-2.5,0-4.5,2-4.5,4.4l0,6.7c0,2.5,2,4.5,4.4,4.5l8.9,0.1c2.5,0,4.5-2,4.5-4.4l0-6.7
			C126.4,111.5,124.4,109.5,121.9,109.5z"/>
		<path class="st59" d="M121.2,111h-7.5c-2.1,0-3.7,1.6-3.7,3.6v5.3c0,2,1.7,3.6,3.7,3.6h7.5c2.1,0,3.7-1.6,3.7-3.6v-5.3
			C124.9,112.6,123.2,111,121.2,111z"/>
	</g>
</g>
<g id="texto2">
</g>
<g id="perfil">
</g>
<g id="text">
</g>
<g id="icon_perf">
</g>
<g id="yo">
</g>
<g id="foto_grand">
</g>
<g id="base_tuerc">
</g>
<g id="icon_tuerca_1_">
</g>
<g id="Paginador">
</g>
<g id="selet_1_">
</g>
<g id="Text_paginac">
</g>
<g id="GRILLA" class="st80">
</g>
</svg>
