<?xml version="1.0" encoding="utf-8"?>
<!-- Generator: Adobe Illustrator 18.1.1, SVG Export Plug-In . SVG Version: 6.00 Build 0)  -->
<svg version="1.1" id="Capa_1" xmlns="http://www.w3.org/2000/svg" xmlns:xlink="http://www.w3.org/1999/xlink" x="0px" y="0px"
	 viewBox="0 0 373.7 50.8" enable-background="new 0 0 373.7 50.8" xml:space="preserve">
<g>
	<path fill="#FFFFFF" d="M1.3,1h36.3c0.5,0,0.9,0.4,0.9,0.9v10.4c0,0.5-0.4,0.9-0.9,0.9H16.1c-0.5,0-0.9,0.4-0.9,0.9v2.7
		c0,0.5,0.4,0.9,0.9,0.9h20c0.5,0,0.9,0.4,0.9,0.9v9c0,0.5-0.4,0.9-0.9,0.9h-20c-0.5,0-0.9,0.4-0.9,0.9v3c0,0.5,0.4,0.9,0.9,0.9h22
		c0.5,0,0.9,0.4,0.9,0.9v10.4c0,0.5-0.4,0.9-0.9,0.9H1.3c-0.5,0-0.9-0.4-0.9-0.9V1.9C0.4,1.4,0.8,1,1.3,1"/>
	<path fill="#FFFFFF" d="M44.9,10.8h13.2c0.4,0,0.8,0.3,0.9,0.6l4.6,14.2c0.3,0.8,1.5,0.9,1.7,0l4.6-14.2c0.1-0.4,0.5-0.6,0.9-0.6
		h13c0.7,0,1.1,0.7,0.9,1.3L71.2,45.4c-0.1,0.3-0.5,0.6-0.9,0.6H58.3c-0.4,0-0.7-0.2-0.9-0.6L44.1,12.1
		C43.8,11.5,44.3,10.8,44.9,10.8"/>
	<path fill="#FFFFFF" d="M108.1,25.3c0.6,0,1-0.6,0.9-1.1c-0.6-2.6-2.4-4.1-4.7-4.1c-2.1,0-3.7,1.6-4.4,4.1
		c-0.2,0.6,0.3,1.2,0.9,1.2H108.1z M86.2,28.5v-0.1c0-10.4,7.5-18.4,18-18.4c12.4,0,18.2,8.6,18.2,19.2c0,0.5,0,1,0,1.5
		c0,0.5-0.4,0.9-0.9,0.9h-20.2c-0.7,0-1.2,0.7-0.8,1.3c1.2,2.2,3.4,3.3,6,3.3c2.4,0,4.4-1,6.5-3c0.3-0.3,0.8-0.3,1.2,0l6.4,5.1
		c0.4,0.3,0.5,0.9,0.1,1.3c-3.4,4.1-8.2,6.9-15.3,6.9C94,46.6,86.2,39.4,86.2,28.5"/>
	<path fill="#FFFFFF" d="M129.4,10.8h12.7c0.5,0,0.9,0.4,0.9,0.9v1.5c0,0.8,1,1.2,1.6,0.6c2.2-2.2,5.2-3.9,9.1-3.9
		c7.4,0,12,4.9,12,12.7v22.1c0,0.5-0.4,0.9-0.9,0.9H152c-0.5,0-0.9-0.4-0.9-0.9V27.4c0-3-1.8-4.7-4-4.7c-2.2,0-4.2,1.7-4.2,4.7v17.4
		c0,0.5-0.4,0.9-0.9,0.9h-12.7c-0.5,0-0.9-0.4-0.9-0.9V11.8C128.5,11.3,128.9,10.8,129.4,10.8"/>
	<path fill="#FFFFFF" d="M175.3,34.1V23c0-0.5-0.4-0.9-0.9-0.9h-2.3c-0.5,0-0.9-0.4-0.9-0.9v-9.4c0-0.5,0.4-0.9,0.9-0.9h2.3
		c0.5,0,0.9-0.4,0.9-0.9V3c0-0.5,0.4-0.9,0.9-0.9h12.7c0.5,0,0.9,0.4,0.9,0.9v6.9c0,0.5,0.4,0.9,0.9,0.9h6.2c0.5,0,0.9,0.4,0.9,0.9
		v9.4c0,0.5-0.4,0.9-0.9,0.9h-6.2c-0.5,0-0.9,0.4-0.9,0.9v7.9c0,2.6,1.2,3.6,3.5,3.6c1,0,2.1-0.2,3.2-0.6c0.6-0.2,1.2,0.2,1.2,0.9
		V44c0,0.3-0.2,0.7-0.5,0.8c-2.3,1.1-5.5,1.7-8.8,1.7C179.9,46.5,175.3,42.6,175.3,34.1"/>
	<path fill="#E72D41" d="M351.6,24c-0.3,0.1-0.6,0.3-0.9,0.6c0,0.2,0.1,0.5,0.1,0.7v18.5c0,0.8,0.6,1.4,1.4,1.4h1.9V28.7
		C354.1,26.3,353.1,24.7,351.6,24"/>
	<path fill="#E72D41" d="M241,33h-4l-0.9,0.9c-0.9,0.9-0.3,2.5,1,2.5h5.3v-1.9C242.4,33.6,241.8,33,241,33"/>
	<path fill="#E72D41" d="M220.6,23.2h-3.2l-11.6,11.9c-0.3,0.3-0.4,0.6-0.4,1v7.8c0,0.8,0.6,1.4,1.4,1.4h1.9v-5.9
		c0-0.4,0.1-0.7,0.4-1l12.5-12.7C222.5,24.7,221.9,23.2,220.6,23.2"/>
	<path fill="#E72D41" d="M241,7.6h-33.5c-0.8,0-1.4,0.6-1.4,1.4v9.4c0,0.8,0.6,1.4,1.4,1.4h1.9v-7.5c0-0.8,0.6-1.4,1.4-1.4h3.3h28.3
		V9C242.4,8.2,241.8,7.6,241,7.6"/>
	<path fill="#E72D41" d="M291.3,7.8h-12.8c-0.8,0-1.4,0.6-1.4,1.4v18.4c0,2-0.8,3.5-2,4.3c0.3,1.9,1.2,3.2,2.6,3.8
		c1.6-0.7,2.8-2.3,2.8-4.8V12.5c0-0.8,0.6-1.4,1.4-1.4h3.3h7.6V9.2C292.7,8.4,292.1,7.8,291.3,7.8"/>
	<path fill="#E72D41" d="M266.8,7.8H254c-0.8,0-1.4,0.6-1.4,1.4v23.4c0,5.4,2,9.5,5.6,11.8c-1.4-2.2-2.2-5.1-2.2-8.4V12.5
		c0-0.8,0.6-1.4,1.4-1.4h3.3h7.6V9.2C268.2,8.4,267.6,7.8,266.8,7.8"/>
	<path fill="#E72D41" d="M320.5,10.1c-0.9,0.8-2.4,0.1-2.4-1.1c0-0.8-0.6-1.4-1.4-1.4h-12.8c-0.8,0-1.4,0.6-1.4,1.4v34.8
		c0,0.8,0.6,1.4,1.4,1.4h1.9V12.4c0-0.8,0.6-1.4,1.4-1.4h3.3h9.5h3.3c0.8,0,1.4,0.6,1.4,1.4c0,0.1,0,0.2,0,0.3
		c2.1-1.6,4.8-2.6,8-2.6c0.6,0,1.2,0,1.8,0.1c0.5-0.1,1-0.1,1.6-0.1c0.9,0,1.7,0.1,2.5,0.2c-2.2-2.3-5.4-3.6-9.2-3.6
		C325.8,6.7,322.8,8.1,320.5,10.1"/>
	<path fill="#E72D41" d="M353.4,6.7c-4.9,0-8.3,1.9-11.2,4.6c1.5,0.7,2.7,1.7,3.8,2.9c2.8-2.5,6.1-4.2,10.8-4.2c0.6,0,1.1,0,1.7,0.1
		c0.5-0.1,1.1-0.1,1.7-0.1c1,0,1.9,0.1,2.8,0.2C360.6,8,357.4,6.7,353.4,6.7"/>
	<path fill="#E72D41" d="M327.5,24c-0.3,0.1-0.6,0.3-0.9,0.6c0,0.2,0.1,0.5,0.1,0.7v18.5c0,0.8,0.6,1.4,1.4,1.4h1.9V28.7
		C330,26.3,328.9,24.7,327.5,24"/>
	<path fill="#2FAC66" d="M212.1,47.2v-1.9h-3.3v1.9c0,0.8,0.6,1.4,1.4,1.4h3.3C212.7,48.6,212.1,48,212.1,47.2"/>
	<path fill="#2FAC66" d="M212.7,21.8v-1.9h-3.3v1.9c0,0.8,0.6,1.4,1.4,1.4h3.3C213.3,23.2,212.7,22.6,212.7,21.8"/>
	<path fill="#2FAC66" d="M258.1,44.4c2.2,3.4,5.9,5.3,10.7,5.3c0.6,0,1.1,0,1.6-0.1c-3.1-0.3-5.7-1.5-7.6-3.5
		C261.1,45.9,259.5,45.3,258.1,44.4"/>
	<path fill="#2FAC66" d="M283.7,47.4L283.7,47.4c0-1.2-1.4-1.9-2.4-1.1c-0.3,0.3-0.7,0.5-1,0.8c0,0.1,0,0.2,0,0.3v0
		c0,0.8,0.6,1.4,1.4,1.4h3.3C284.3,48.8,283.7,48.2,283.7,47.4"/>
	<path fill="#2FAC66" d="M357.5,47.2v-1.9h-3.3v1.9c0,0.8,0.6,1.4,1.4,1.4h3.3C358.1,48.6,357.5,48,357.5,47.2"/>
	<path fill="#2FAC66" d="M309.1,47.2v-1.9h-3.3v1.9c0,0.8,0.6,1.4,1.4,1.4h3.3C309.8,48.6,309.1,48,309.1,47.2"/>
	<path fill="#2FAC66" d="M333.3,47.2v-1.9H330v1.9c0,0.8,0.6,1.4,1.4,1.4h3.3C333.9,48.6,333.3,48,333.3,47.2"/>
	<path fill="#F9F2A0" d="M305.8,12.4v32.9h3.3V12.4c0-0.8,0.6-1.4,1.4-1.4h-3.3C306.4,10.9,305.8,11.6,305.8,12.4"/>
	<path fill="#F9F2A0" d="M324.9,12.7c0.2,1,1.5,1.5,2.3,0.8c2-1.7,4.5-3,7.5-3.3c-0.6-0.1-1.2-0.1-1.8-0.1
		C329.7,10,327,11.1,324.9,12.7"/>
	<path fill="#F9F2A0" d="M259.2,12.5c0-0.8,0.6-1.4,1.4-1.4h-3.3c-0.8,0-1.4,0.6-1.4,1.4V36c0,3.4,0.8,6.2,2.2,8.4
		c1.4,0.9,2.9,1.5,4.7,1.8c-2.3-2.4-3.6-5.9-3.6-10.2V12.5z"/>
	<path fill="#F9F2A0" d="M224,23.2h-3.3c1.3,0,1.9,1.5,1,2.4l-12.5,12.7c-0.3,0.3-0.4,0.6-0.4,1v5.9h3.3v-5.9c0-0.4,0.1-0.7,0.4-1
		L225,25.7C225.9,24.7,225.2,23.2,224,23.2"/>
	<path fill="#F9F2A0" d="M212.7,12.4c0-0.8,0.6-1.4,1.4-1.4h-3.3c-0.8,0-1.4,0.6-1.4,1.4v7.5h3.3V12.4z"/>
	<path fill="#F9F2A0" d="M280.4,12.5v18.4c0,2.4-1.2,4.1-2.8,4.8c0.5,0.2,1.1,0.3,1.7,0.3c2.3,0,4.5-1.9,4.5-5.1V12.5
		c0-0.8,0.6-1.4,1.4-1.4h-3.3C281,11.1,280.4,11.7,280.4,12.5"/>
	<path fill="#F9F2A0" d="M329.2,23.7c-0.6,0-1.2,0.1-1.7,0.4c1.5,0.7,2.5,2.3,2.5,4.6v16.6h3.3V28.7
		C333.3,25.5,331.4,23.7,329.2,23.7"/>
	<path fill="#F9F2A0" d="M353.3,23.7c-0.6,0-1.2,0.1-1.7,0.4c1.5,0.7,2.5,2.3,2.5,4.6v16.6h3.3V28.7
		C357.5,25.5,355.6,23.7,353.3,23.7"/>
	<path fill="#F9F2A0" d="M356.8,10c-4.6,0-8,1.7-10.8,4.2c0.1,0.2,0.3,0.3,0.4,0.5c0.5,0.7,1.5,0.8,2.2,0.2c2.6-2.6,5.7-4.4,9.9-4.8
		C357.9,10.1,357.3,10,356.8,10"/>
	<path fill="#5A70B5" d="M247.6,10.9h-3.3c0.8,0,1.4,0.6,1.4,1.4v7.8c0,0.4-0.1,0.7-0.4,1L233.6,33h3.3l11.7-11.9
		c0.3-0.3,0.4-0.6,0.4-1v-7.8C249.1,11.6,248.4,10.9,247.6,10.9"/>
	<path fill="#5A70B5" d="M247.6,36.3h-3.3c0.8,0,1.4,0.6,1.4,1.4v9.4c0,0.8-0.6,1.4-1.4,1.4h3.3c0.8,0,1.4-0.6,1.4-1.4v-9.4
		C249.1,37,248.4,36.3,247.6,36.3"/>
	<path fill="#5A70B5" d="M297.9,11.1h-3.3c0.8,0,1.4,0.6,1.4,1.4v34.8c0,0.8-0.6,1.4-1.4,1.4h3.3c0.8,0,1.4-0.6,1.4-1.4V12.5
		C299.4,11.7,298.7,11.1,297.9,11.1"/>
	<path fill="#4663AC" d="M274.9,12.5c0-0.8-0.6-1.4-1.4-1.4h-3.3c0.8,0,1.4,0.6,1.4,1.4v18.4c0,0.6,0.1,1.2,0.2,1.7
		c0.2,0,0.5,0.1,0.7,0.1c0.9,0,1.7-0.3,2.5-0.8c0-0.3-0.1-0.6-0.1-1V12.5z"/>
	<path fill="#5A70B5" d="M350,23.7c-2.3,0-4.4,1.8-4.4,5v18.5c0,0.8-0.6,1.4-1.4,1.4h3.3c0.8,0,1.4-0.6,1.4-1.4V28.7
		c0-1.9,0.7-3.2,1.8-4.1c0-0.3-0.1-0.6-0.1-0.9C350.4,23.7,350.2,23.7,350,23.7"/>
	<path fill="#5A70B5" d="M362.8,10.2c0.5,0.5,1,1.1,1.4,1.8c3.5,2.3,5.6,6.3,5.6,11.7v23.4c0,0.8-0.6,1.4-1.4,1.4h3.3
		c0.8,0,1.4-0.6,1.4-1.4V23.8C373.1,16.3,369.3,11.3,362.8,10.2"/>
	<path fill="#5A70B5" d="M325.8,23.7c-2.3,0-4.4,1.8-4.4,5v18.5c0,0.8-0.6,1.4-1.4,1.4h3.3c0.8,0,1.4-0.6,1.4-1.4V28.7
		c0-1.9,0.7-3.2,1.8-4.1c0-0.3-0.1-0.6-0.1-0.9C326.2,23.7,326,23.7,325.8,23.7"/>
	<path fill="#4663AC" d="M339.7,11.4c0.5,0.7,1.5,0.8,2.2,0.2c0.1-0.1,0.2-0.2,0.3-0.3c-1.1-0.5-2.2-0.8-3.5-1
		C339.1,10.6,339.4,11,339.7,11.4"/>
	<path fill="#EF90B9" d="M236.1,33.9L237,33h-3.3l-0.9,0.9c-0.9,0.9-0.3,2.5,1,2.5h3.3C235.8,36.3,235.2,34.8,236.1,33.9"/>
	<path fill="#EF90B9" d="M275,31.9c-0.7,0.5-1.6,0.8-2.5,0.8c-0.2,0-0.5,0-0.7-0.1c0.6,2.2,2.2,3.4,4.1,3.4c0.6,0,1.2-0.1,1.7-0.3
		C276.2,35.1,275.3,33.8,275,31.9"/>
	<path fill="#EF90B9" d="M362.8,10.2c-0.9-0.1-1.8-0.2-2.8-0.2c-0.6,0-1.1,0-1.7,0.1c2.2,0.2,4.2,0.9,5.8,1.9
		C363.8,11.4,363.4,10.8,362.8,10.2"/>
	<path fill="#EF90B9" d="M323.4,10.9H320c0.8,0,1.4,0.6,1.4,1.4c0,1.2,1.4,1.9,2.4,1.1c0.3-0.3,0.7-0.5,1-0.8c0-0.1,0-0.2,0-0.3
		C324.8,11.6,324.2,10.9,323.4,10.9"/>
	<path fill="#EF90B9" d="M326.6,24.6c0.3-0.2,0.6-0.4,0.9-0.6c-0.3-0.1-0.7-0.2-1-0.3C326.5,24,326.5,24.3,326.6,24.6"/>
	<path fill="#EF90B9" d="M342.2,11.3c-0.1,0.1-0.2,0.2-0.3,0.3c-0.6,0.6-1.7,0.5-2.2-0.2c-0.3-0.4-0.6-0.8-1-1.1
		c-0.8-0.1-1.7-0.2-2.5-0.2c-0.5,0-1.1,0-1.6,0.1c3.6,0.4,6.5,2,8.4,4.6c0.5,0.7,1.5,0.8,2.2,0.2c0.2-0.2,0.5-0.5,0.8-0.7
		C345,13,343.7,12,342.2,11.3"/>
	<path fill="#5CC5EF" d="M214.1,23.2h3.3l0.9-0.9c0.9-0.9,0.2-2.4-1-2.4h-4.6v1.9C212.7,22.6,213.3,23.2,214.1,23.2"/>
	<path fill="#5CC5EF" d="M244.3,10.9h-1.9v5.9c0,0.4-0.1,0.7-0.4,1l-12.6,12.7c-0.9,0.9-0.3,2.5,1,2.5h3.2l11.7-11.9
		c0.3-0.3,0.4-0.6,0.4-1v-7.8C245.7,11.6,245.1,10.9,244.3,10.9"/>
	<path fill="#5CC5EF" d="M244.3,36.3h-1.9v7.5c0,0.8-0.6,1.4-1.4,1.4h-28.9v1.9c0,0.8,0.6,1.4,1.4,1.4h30.8c0.8,0,1.4-0.6,1.4-1.4
		v-9.4C245.7,37,245.1,36.3,244.3,36.3"/>
	<path fill="#5CC5EF" d="M294.6,11.1h-1.9V44c0,0.8-0.6,1.4-1.4,1.4h-12.8c-0.8,0-1.4-0.6-1.4-1.4v0c0-1.2-1.4-1.9-2.4-1.1
		c-2.3,2-5.3,3.5-9.2,3.5c-0.9,0-1.8-0.1-2.6-0.2c1.9,1.9,4.5,3.1,7.6,3.5c3.1-0.3,5.6-1.7,7.6-3.4c0.8-0.7,2.1-0.2,2.3,0.8
		c0.4-0.3,0.7-0.5,1-0.8c0.9-0.8,2.4-0.1,2.4,1.1v0c0,0.8,0.6,1.4,1.4,1.4h9.5c0.8,0,1.4-0.6,1.4-1.4V12.5
		C296,11.7,295.4,11.1,294.6,11.1"/>
	<path fill="#5CC5EF" d="M271.8,32.6c-0.1-0.5-0.2-1.1-0.2-1.7V12.5c0-0.8-0.6-1.4-1.4-1.4h-1.9v16.5
		C268.2,30.5,269.8,32.3,271.8,32.6"/>
	<path fill="#5CC5EF" d="M364.3,12c1.4,2.2,2.2,5.1,2.2,8.4v23.4c0,0.8-0.6,1.4-1.4,1.4h-7.6v1.9c0,0.8,0.6,1.4,1.4,1.4h9.5
		c0.8,0,1.4-0.6,1.4-1.4V23.8C369.8,18.4,367.8,14.3,364.3,12"/>
	<path fill="#5CC5EF" d="M346.7,20.4c-2.3,0-4.4,1.8-4.4,5v18.5c0,0.8-0.6,1.4-1.4,1.4h-7.6v1.9c0,0.8,0.6,1.4,1.4,1.4h9.5
		c0.8,0,1.4-0.6,1.4-1.4V28.7c0-3.2,2.1-5,4.4-5c0.2,0,0.4,0,0.6,0.1C350.1,21.6,348.5,20.4,346.7,20.4"/>
	<path fill="#5CC5EF" d="M322.5,20.4c-2.3,0-4.4,1.8-4.4,5v18.5c0,0.8-0.6,1.4-1.4,1.4h-7.6v1.9c0,0.8,0.6,1.4,1.4,1.4h9.5
		c0.8,0,1.4-0.6,1.4-1.4V28.7c0-3.2,2.1-5,4.4-5c0.2,0,0.4,0,0.6,0.1C325.9,21.6,324.4,20.4,322.5,20.4"/>
	<path fill="#FFFFFF" d="M212.7,12.4v7.5h4.6c1.3,0,1.9,1.5,1,2.4l-0.9,0.9h3.2h3.3c1.3,0,1.9,1.5,1,2.4l-12.5,12.7
		c-0.3,0.3-0.4,0.6-0.4,1v5.9H241c0.8,0,1.4-0.6,1.4-1.4v-7.5h-5.3h-3.3c-1.3,0-1.9-1.5-1-2.5l0.9-0.9h-3.2c-1.3,0-1.9-1.5-1-2.5
		L242,17.8c0.3-0.3,0.4-0.6,0.4-1v-5.9h-28.3C213.3,10.9,212.7,11.6,212.7,12.4"/>
	<path fill="#FFFFFF" d="M283.7,12.5v18.4c0,3.2-2.1,5.1-4.5,5.1c-0.6,0-1.1-0.1-1.7-0.3c-0.5,0.2-1.1,0.3-1.7,0.3
		c-1.9,0-3.5-1.2-4.1-3.4c-2-0.3-3.6-2.1-3.6-5V11.1h-7.6c-0.8,0-1.4,0.6-1.4,1.4V36c0,4.3,1.3,7.8,3.6,10.2
		c0.8,0.1,1.7,0.2,2.6,0.2c3.8,0,6.9-1.5,9.2-3.5c0.9-0.8,2.4-0.1,2.4,1.1v0c0,0.8,0.6,1.4,1.4,1.4h12.8c0.8,0,1.4-0.6,1.4-1.4V11.1
		h-7.6C284.3,11.1,283.7,11.7,283.7,12.5"/>
	<path fill="#FFFFFF" d="M364.3,12c-1.6-1-3.6-1.7-5.8-1.9c-4.2,0.4-7.3,2.2-9.9,4.8c-0.6,0.6-1.7,0.5-2.2-0.2
		c-0.1-0.2-0.3-0.3-0.4-0.5c-0.3,0.2-0.5,0.5-0.8,0.7c-0.6,0.6-1.7,0.5-2.2-0.2c-1.9-2.6-4.8-4.2-8.4-4.6c-3,0.3-5.5,1.7-7.5,3.3
		c-0.8,0.7-2.1,0.2-2.3-0.8c-0.4,0.3-0.7,0.5-1,0.8c-0.9,0.8-2.4,0.1-2.4-1.1c0-0.8-0.6-1.4-1.4-1.4h-9.5c-0.8,0-1.4,0.6-1.4,1.4
		v32.9h7.6c0.8,0,1.4-0.6,1.4-1.4V25.3c0-3.2,2.1-5,4.4-5c1.9,0,3.4,1.2,3.9,3.4c0.4,0.1,0.7,0.1,1,0.3c0.5-0.2,1.1-0.4,1.7-0.4
		c2.3,0,4.1,1.8,4.1,5v16.6h7.6c0.8,0,1.4-0.6,1.4-1.4V25.3c0-3.2,2.1-5,4.4-5c1.9,0,3.4,1.2,3.9,3.4c0.4,0.1,0.7,0.1,1,0.3
		c0.5-0.2,1.1-0.4,1.7-0.4c2.3,0,4.1,1.8,4.1,5v16.6h7.6c0.8,0,1.4-0.6,1.4-1.4V20.4C366.5,17.1,365.7,14.2,364.3,12"/>
</g>
</svg>
